<?xml version="1.0" encoding="utf-8"?>
<!-- Generated by Mocodo 4.3.2 -->
<svg width="303" height="236" viewBox="0 0 303 236" xmlns="http://www.w3.org/2000/svg">
<rect x="0" y="0" width="303" height="236" fill="#f5f5f5" stroke="none" stroke-width="0"/>

<!-- Association HAS -->
<g>
	<line x1="61" y1="80" x2="179" y2="80" stroke="#bf812d" stroke-width="1"/>
	<line x1="263" y1="80" x2="179" y2="80" stroke="#bf812d" stroke-width="1"/>
	<g>
		<path d="M185 54 a14 14 90 0 1 14 14 V80 h-40 V68 a14 14 90 0 1 14 -14" fill="#dfc27d" stroke="#dfc27d" stroke-width="0"/>
		<path d="M199 80 v12 a14 14 90 0 1 -14 14 H173 a14 14 90 0 1 -14 -14 V80 H40" fill="#f6e8c3" stroke="#f6e8c3" stroke-width="0"/>
		<rect x="159" y="54" width="40" height="52" fill="none" rx="14" stroke="#bf812d" stroke-width="1.5"/>
		<line x1="159" y1="80" x2="199" y2="80" stroke="#bf812d" stroke-width="1"/>
		<text x="166" y="72.6" fill="#000000" font-family="Courier New" font-size="14">Has</text>
	</g>
	<text x="118" y="96" fill="#01665e" font-family="Courier New" font-size="12">1,N</text>
	<text x="204" y="96" fill="#01665e" font-family="Courier New" font-size="12">0,N</text>
</g>

<!-- Association COMES_FROM -->
<g>
	<line x1="61" y1="80" x2="61" y2="201" stroke="#bf812d" stroke-width="1"/>
	<line x1="179" y1="201" x2="61" y2="201" stroke="#bf812d" stroke-width="1"/>
	<g>
		<path d="M97 175 a14 14 90 0 1 14 14 V201 h-100 V189 a14 14 90 0 1 14 -14" fill="#dfc27d" stroke="#dfc27d" stroke-width="0"/>
		<path d="M111 201 v12 a14 14 90 0 1 -14 14 H25 a14 14 90 0 1 -14 -14 V201 H100" fill="#f6e8c3" stroke="#f6e8c3" stroke-width="0"/>
		<rect x="11" y="175" width="100" height="52" fill="none" rx="14" stroke="#bf812d" stroke-width="1.5"/>
		<line x1="11" y1="201" x2="111" y2="201" stroke="#bf812d" stroke-width="1"/>
		<text x="19" y="193.6" fill="#000000" font-family="Courier New" font-size="14">Comes from</text>
	</g>
	<text x="66" y="167" fill="#01665e" font-family="Courier New" font-size="12">1,1</text>
	<text x="116" y="217" fill="#01665e" font-family="Courier New" font-size="12">0,N</text>
</g>

<!-- Entity CAFE -->
<g>
	<g>
		<rect x="9" y="9" width="104" height="26" fill="#80cdc1" stroke="none" stroke-width="0" opacity="1"/>
		<rect x="9" y="35" width="104" height="116" fill="#c7eae5" stroke="none" stroke-width="0" opacity="1"/>
		<rect x="9" y="9" width="104" height="142" fill="none" stroke="#35978f" stroke-width="1.5" opacity="1"/>
		<line x1="9" y1="35" x2="113" y2="35" stroke="#35978f" stroke-width="1"/>
	</g>
	<text x="44" y="27.6" fill="#000000" font-family="Courier New" font-size="14">CAFE</text>
	<text x="14" y="53.6" fill="#000000" font-family="Courier New" font-size="14">reference</text>
	<line x1="14" y1="56" x2="91" y2="56" stroke="#000000" stroke-width="1"/>
	<text x="14" y="71.6" fill="#000000" font-family="Courier New" font-size="14">name</text>
	<text x="14" y="89.6" fill="#000000" font-family="Courier New" font-size="14">description</text>
	<text x="14" y="107.6" fill="#000000" font-family="Courier New" font-size="14">image</text>
	<text x="14" y="125.6" fill="#000000" font-family="Courier New" font-size="14">price kg</text>
	<text x="14" y="143.6" fill="#000000" font-family="Courier New" font-size="14">in stock</text>
</g>

<!-- Entity FLAVOR -->
<g>
	<g>
		<rect x="232" y="54" width="62" height="26" fill="#80cdc1" stroke="none" stroke-width="0" opacity="1"/>
		<rect x="232" y="80" width="62" height="26" fill="#c7eae5" stroke="none" stroke-width="0" opacity="1"/>
		<rect x="232" y="54" width="62" height="52" fill="none" stroke="#35978f" stroke-width="1.5" opacity="1"/>
		<line x1="232" y1="80" x2="294" y2="80" stroke="#35978f" stroke-width="1"/>
	</g>
	<text x="237" y="72.6" fill="#000000" font-family="Courier New" font-size="14">FLAVOR</text>
	<text x="237" y="98.6" fill="#000000" font-family="Courier New" font-size="14">name</text>
	<line x1="237" y1="101" x2="272" y2="101" stroke="#000000" stroke-width="1"/>
</g>

<!-- Entity COUNTRY -->
<g>
	<g>
		<rect x="144" y="175" width="70" height="26" fill="#80cdc1" stroke="none" stroke-width="0" opacity="1"/>
		<rect x="144" y="201" width="70" height="26" fill="#c7eae5" stroke="none" stroke-width="0" opacity="1"/>
		<rect x="144" y="175" width="70" height="52" fill="none" stroke="#35978f" stroke-width="1.5" opacity="1"/>
		<line x1="144" y1="201" x2="214" y2="201" stroke="#35978f" stroke-width="1"/>
	</g>
	<text x="149" y="193.6" fill="#000000" font-family="Courier New" font-size="14">COUNTRY</text>
	<text x="149" y="219.6" fill="#000000" font-family="Courier New" font-size="14">name</text>
	<line x1="149" y1="222" x2="184" y2="222" stroke="#000000" stroke-width="1"/>
</g>
</svg>